<svg xmlns="http://www.w3.org/2000/svg" viewBox="0 0 200 250" width="200" height="250">
    <style>
        /* Color for the flask container outline and the smoke puffs */
        .svg-flask-outline {
        fill: #333333; /* Currently Dark Grey */
        }
        /* Color for the liquid inside the flask */
        .svg-flask-liquid {
        fill: #3498db; /* Currently Blue */
        }
        /* Color for the "Flask" text at the bottom */
        .svg-flask-text {
        fill: #333333; /* Currently Dark Grey */
        }
    </style>

    <path class="svg-flask-outline"
        d="M94.6 6.7c-2.8 3.4-2.3 7.8 1.2 10.7 2.9 2.3 5.7 4.7 8.6 7 3.4 2.8 7.8 2.3 10.7-1.2 2.3-2.9 4.7-5.7 7-8.6 2.8-3.4 2.3-7.8-1.2-10.7-2.9-2.3-5.7-4.7-8.6-7-3.4-2.8-7.8-2.3-10.7 1.2-2.3 2.9-4.7 5.7-7 8.6zM96.4 52.5c-3.4 2.8-2.3 7.8 1.2 10.7 2.9 2.3 5.7 4.7 8.6 7 3.4 2.8 7.8 2.3 10.7-1.2 2.3-2.9 4.7-5.7 7-8.6 2.8-3.4 2.3-7.8-1.2-10.7-2.9-2.3-5.7-4.7-8.6-7-3.4-2.8-7.8-2.3-10.7 1.2-2.3 2.8-4.7 5.7-7 8.6zM67.5 88.7v48.5l-47 67c-4.5 6.3-2.2 14.8 5.5 14.8h148c7.7 0 10-8.5 5.5-14.8l-47-67V88.7h-65zm7.5 7.5h50v44.3L167.8 199H32.2l42.8-58.5V96.2z" />

    <path class="svg-flask-liquid"
        d="M60.5 167.8l-12 16.5h103l-12-16.5c-17.5 7.8-23.8-1.8-39.5-1.8-15.7 0-22 9.6-39.5 1.8z" />

    <path class="svg-flask-text"
        d="M41.5 229.5h22.7v-8.3h-9.6v-38.4h37.3v6.6h8.8v-17h-8.8v5.5H54.6v43.3h-13.1v8.3zM79.5 229.5h9.1v-49.8h-9.1v49.8zM117.5 229.5v-8.3l-18.9-0.1c-2.8 0-5.2-1.5-6.5-3.9l-0.3-0.7c-1.3-2.4-1.3-5.3 0-7.7l7-13.2c2.6-4.9 10.6-4.9 13.1 0 1.3 2.4 1.3 5.3 0 7.7-2.6 4.9-10.6 4.9-13.1 0-0.6-1.1-0.9-2.3-1.1-3.5h-10.4c0.7 4 2.5 7.7 5.2 10.8l17.4 18.9h7.6zM147.6 229.5v-14.9l-11-11.7 9.4-10.7v-12.5h-10.7l-7.6 8.6v-24h-9.1v65.2h9.1v-26.8l10.7 11.4v15.4h9.2zM108.1 192.2c-2.1 0-3.8-1.7-3.8-3.8s1.7-3.8 3.8-3.8 3.8 1.7 3.8 3.8-1.7 3.8-3.8 3.8z" />
</svg>